<?xml version="1.0" encoding="UTF-8"?>
<!DOCTYPE svg PUBLIC "-//W3C//DTD SVG 1.1//EN" "http://www.w3.org/Graphics/SVG/1.1/DTD/svg11.dtd">
<svg xmlns="http://www.w3.org/2000/svg" version="1.1" width="240px" height="240px" style="shape-rendering:geometricPrecision; text-rendering:geometricPrecision; image-rendering:optimizeQuality; fill-rule:evenodd; clip-rule:evenodd" xmlns:xlink="http://www.w3.org/1999/xlink">
<g><path style="opacity:1" fill="#f8f8f8" d="M -0.5,-0.5 C 79.5,-0.5 159.5,-0.5 239.5,-0.5C 239.5,79.5 239.5,159.5 239.5,239.5C 159.5,239.5 79.5,239.5 -0.5,239.5C -0.5,159.5 -0.5,79.5 -0.5,-0.5 Z"/></g>
<g><path style="opacity:1" fill="#daf9f6" d="M 121.5,66.5 C 101.497,66.3334 81.4972,66.5 61.5,67C 60.5769,69.0408 60.2436,71.2075 60.5,73.5C 81.5755,73.1787 102.576,73.512 123.5,74.5C 128.141,84.4199 131.808,94.7533 134.5,105.5C 132.597,102.47 131.263,99.1368 130.5,95.5C 128.876,95.6399 127.71,94.9733 127,93.5C 127.046,96.8004 127.212,100.134 127.5,103.5C 125.64,99.9175 123.973,96.2508 122.5,92.5C 122.167,90.5 121.833,88.5 121.5,86.5C 123.45,84.5699 124.783,82.2366 125.5,79.5C 122.53,79.2542 121.197,77.5876 121.5,74.5C 102.155,74.1671 82.8218,74.5004 63.5,75.5C 81.1541,76.4995 98.8208,76.8329 116.5,76.5C 116.5,77.5 116.5,78.5 116.5,79.5C 98.2133,78.5261 79.88,78.1927 61.5,78.5C 61.5,80.8333 61.5,83.1667 61.5,85.5C 59.5613,84.9862 58.5613,83.6528 58.5,81.5C 59.5471,79.9436 60.2137,78.2769 60.5,76.5C 58.8333,76.5 57.1667,76.5 55.5,76.5C 57.1299,73.0046 58.7966,69.5046 60.5,66C 81.0042,65.1708 101.337,65.3374 121.5,66.5 Z"/></g>
<g><path style="opacity:1" fill="#86ccc7" d="M 198.5,66.5 C 198.5,66.8333 198.5,67.1667 198.5,67.5C 189.833,67.5 181.167,67.5 172.5,67.5C 172.811,66.5222 173.478,65.8555 174.5,65.5C 182.444,66.4685 190.444,66.8019 198.5,66.5 Z"/></g>
<g><path style="opacity:1" fill="#24948c" d="M 121.5,66.5 C 125.66,67.3249 128.66,69.6582 130.5,73.5C 128.104,73.6377 125.771,73.971 123.5,74.5C 102.576,73.512 81.5755,73.1787 60.5,73.5C 60.2436,71.2075 60.5769,69.0408 61.5,67C 81.4972,66.5 101.497,66.3334 121.5,66.5 Z"/></g>
<g><path style="opacity:1" fill="#078a99" d="M 63.5,69.5 C 79.5139,69.1672 95.5139,69.5006 111.5,70.5C 103.5,70.8333 95.5,71.1667 87.5,71.5C 79.1376,71.4978 71.1376,70.8311 63.5,69.5 Z"/></g>
<g><path style="opacity:1" fill="#f7f5ef" d="M 121.5,86.5 C 120.568,83.6349 118.902,81.3016 116.5,79.5C 116.5,78.5 116.5,77.5 116.5,76.5C 98.8208,76.8329 81.1541,76.4995 63.5,75.5C 82.8218,74.5004 102.155,74.1671 121.5,74.5C 121.197,77.5876 122.53,79.2542 125.5,79.5C 124.783,82.2366 123.45,84.5699 121.5,86.5 Z"/></g>
<g><path style="opacity:1" fill="#168a85" d="M 172.5,67.5 C 181.167,67.5 189.833,67.5 198.5,67.5C 198.5,69.5 198.5,71.5 198.5,73.5C 194.154,73.3343 189.821,73.501 185.5,74C 183.723,77.2093 182.057,80.376 180.5,83.5C 179.18,84.9418 177.514,85.6085 175.5,85.5C 175.665,88.8499 175.498,92.1832 175,95.5C 174.415,93.3386 173.582,91.3386 172.5,89.5C 173.562,84.313 175.229,79.313 177.5,74.5C 174.433,72.9479 171.933,73.6145 170,76.5C 167.763,83.0629 165.263,89.3963 162.5,95.5C 162.887,91.5559 162.22,87.8892 160.5,84.5C 161.423,79.4701 163.257,74.8035 166,70.5C 167.734,68.5494 169.901,67.5494 172.5,67.5 Z"/></g>
<g><path style="opacity:1" fill="#1b7d85" d="M 123.5,74.5 C 125.771,73.971 128.104,73.6377 130.5,73.5C 135.269,84.1349 139.269,95.1349 142.5,106.5C 141.603,107.598 140.77,107.598 140,106.5C 139.167,104.5 138.333,102.5 137.5,100.5C 136.678,102.139 136.011,103.805 135.5,105.5C 135.167,105.5 134.833,105.5 134.5,105.5C 131.808,94.7533 128.141,84.4199 123.5,74.5 Z"/></g>
<g><path style="opacity:1" fill="#217885" d="M 198.5,78.5 C 198.5,80.8333 198.5,83.1667 198.5,85.5C 197.325,85.281 196.325,85.6143 195.5,86.5C 193.063,93.0278 190.396,99.3611 187.5,105.5C 187.316,101.921 187.983,98.5873 189.5,95.5C 188.5,95.5 187.5,95.5 186.5,95.5C 186.912,97.9726 185.912,99.3059 183.5,99.5C 185.167,93.3328 187.334,87.3328 190,81.5C 192.305,79.0695 195.138,78.0695 198.5,78.5 Z"/></g>
<g><path style="opacity:1" fill="#2a818c" d="M 116.5,79.5 C 118.902,81.3016 120.568,83.6349 121.5,86.5C 121.833,88.5 122.167,90.5 122.5,92.5C 121.33,94.2785 119.664,95.2785 117.5,95.5C 115.79,92.5705 114.457,89.4039 113.5,86C 112.5,85.8333 111.5,85.6667 110.5,85.5C 108.97,85.6399 107.97,86.3065 107.5,87.5C 104.838,85.7319 101.838,85.0653 98.5,85.5C 98.1667,85.5 97.8333,85.5 97.5,85.5C 95.5,85.5 93.5,85.5 91.5,85.5C 91.8303,105.007 91.497,124.341 90.5,143.5C 90.5,135.5 90.5,127.5 90.5,119.5C 90.6664,110.827 90.4998,102.16 90,93.5C 89.5,94 89,94.5 88.5,95C 89.6751,98.821 89.5085,102.654 88,106.5C 87.0513,104.907 85.8846,103.574 84.5,102.5C 84.5,96.8333 84.5,91.1667 84.5,85.5C 76.8333,85.5 69.1667,85.5 61.5,85.5C 61.5,83.1667 61.5,80.8333 61.5,78.5C 79.88,78.1927 98.2133,78.5261 116.5,79.5 Z"/></g>
<g><path style="opacity:1" fill="#166a80" d="M 160.5,84.5 C 162.22,87.8892 162.887,91.5559 162.5,95.5C 161.405,100.784 159.739,105.784 157.5,110.5C 157.029,109.099 156.362,107.766 155.5,106.5C 154.388,108.419 153.054,110.086 151.5,111.5C 154.255,102.345 157.255,93.3453 160.5,84.5 Z"/></g>
<g><path style="opacity:1" fill="#126982" d="M 98.5,85.5 C 101.838,85.0653 104.838,85.7319 107.5,87.5C 110.5,95.5 113.5,103.5 116.5,111.5C 115.5,111.5 114.5,111.5 113.5,111.5C 113.719,110.325 113.386,109.325 112.5,108.5C 111.526,110.743 111.192,113.076 111.5,115.5C 109.842,111.587 108.176,107.587 106.5,103.5C 105.968,100.54 105.301,100.207 104.5,102.5C 103.732,103.263 103.232,104.263 103,105.5C 101.605,104.185 100.605,104.519 100,106.5C 99.8227,102.644 99.3227,98.977 98.5,95.5C 98.5,92.1667 98.5,88.8333 98.5,85.5 Z"/></g>
<g><path style="opacity:1" fill="#195b75" d="M 90.5,119.5 C 89.5269,117.052 89.1936,114.385 89.5,111.5C 88.1667,111.5 86.8333,111.5 85.5,111.5C 85.5,116.833 85.5,122.167 85.5,127.5C 85.8195,132.363 85.4861,137.03 84.5,141.5C 84.5,128.5 84.5,115.5 84.5,102.5C 85.8846,103.574 87.0513,104.907 88,106.5C 89.5085,102.654 89.6751,98.821 88.5,95C 89,94.5 89.5,94 90,93.5C 90.4998,102.16 90.6664,110.827 90.5,119.5 Z"/></g>
<g><path style="opacity:1" fill="#a4bede" d="M 106.5,103.5 C 105.833,116.833 105.167,130.167 104.5,143.5C 104.5,138.167 104.5,132.833 104.5,127.5C 104.5,124.833 104.5,122.167 104.5,119.5C 104.5,113.833 104.5,108.167 104.5,102.5C 105.301,100.207 105.968,100.54 106.5,103.5 Z"/></g>
<g><path style="opacity:1" fill="#1b677d" d="M 180.5,83.5 C 177.541,93.379 174.208,103.046 170.5,112.5C 170.799,110.396 170.466,108.396 169.5,106.5C 168.548,108.045 168.215,109.712 168.5,111.5C 167.167,111.5 165.833,111.5 164.5,111.5C 166.993,104.015 169.659,96.682 172.5,89.5C 173.582,91.3386 174.415,93.3386 175,95.5C 175.498,92.1832 175.665,88.8499 175.5,85.5C 177.514,85.6085 179.18,84.9418 180.5,83.5 Z"/></g>
<g><path style="opacity:1" fill="#a9c3d6" d="M 97.5,85.5 C 97.8333,85.5 98.1667,85.5 98.5,85.5C 98.5,88.8333 98.5,92.1667 98.5,95.5C 98.5,106.167 98.5,116.833 98.5,127.5C 98.6662,133.842 98.4995,140.175 98,146.5C 97.6264,148.491 96.793,150.158 95.5,151.5C 97.364,129.577 98.0307,107.577 97.5,85.5 Z"/></g>
<g><path style="opacity:1" fill="#0e507c" d="M 98.5,95.5 C 99.3227,98.977 99.8227,102.644 100,106.5C 100.605,104.519 101.605,104.185 103,105.5C 103.232,104.263 103.732,103.263 104.5,102.5C 104.5,108.167 104.5,113.833 104.5,119.5C 103.778,119.918 103.278,120.584 103,121.5C 102.667,120.833 102.333,120.167 102,119.5C 100.748,122.014 100.248,124.68 100.5,127.5C 99.8333,127.5 99.1667,127.5 98.5,127.5C 98.5,116.833 98.5,106.167 98.5,95.5 Z"/></g>
<g><path style="opacity:1" fill="#10477b" d="M 90.5,119.5 C 90.5,127.5 90.5,135.5 90.5,143.5C 90.6716,144.492 90.3382,145.158 89.5,145.5C 89.5,139.5 89.5,133.5 89.5,127.5C 88.1667,127.5 86.8333,127.5 85.5,127.5C 85.5,122.167 85.5,116.833 85.5,111.5C 86.8333,111.5 88.1667,111.5 89.5,111.5C 89.1936,114.385 89.5269,117.052 90.5,119.5 Z"/></g>
<g><path style="opacity:1" fill="#164f79" d="M 170.5,112.5 C 169.167,116.833 167.833,121.167 166.5,125.5C 165.526,124.365 164.359,123.365 163,122.5C 162.451,124.76 161.284,126.426 159.5,127.5C 161.167,122.162 162.834,116.829 164.5,111.5C 165.833,111.5 167.167,111.5 168.5,111.5C 168.215,109.712 168.548,108.045 169.5,106.5C 170.466,108.396 170.799,110.396 170.5,112.5 Z"/></g>
<g><path style="opacity:1" fill="#155775" d="M 187.5,105.5 C 185.893,111.323 183.893,116.989 181.5,122.5C 179.265,122.795 177.265,122.461 175.5,121.5C 177.996,114.004 180.663,106.671 183.5,99.5C 185.912,99.3059 186.912,97.9726 186.5,95.5C 187.5,95.5 188.5,95.5 189.5,95.5C 187.983,98.5873 187.316,101.921 187.5,105.5 Z"/></g>
<g><path style="opacity:1" fill="#285282" d="M 116.5,111.5 C 117.5,114.833 118.5,118.167 119.5,121.5C 117.031,122.607 116.031,124.607 116.5,127.5C 117.5,127.5 118.5,127.5 119.5,127.5C 120.401,131.241 119.068,133.241 115.5,133.5C 115.5,131.5 115.5,129.5 115.5,127.5C 114.5,127.5 113.5,127.5 112.5,127.5C 112.821,133.026 112.488,138.36 111.5,143.5C 111.5,134.167 111.5,124.833 111.5,115.5C 111.192,113.076 111.526,110.743 112.5,108.5C 113.386,109.325 113.719,110.325 113.5,111.5C 114.5,111.5 115.5,111.5 116.5,111.5 Z"/></g>
<g><path style="opacity:1" fill="#233c77" d="M 166.5,125.5 C 164.536,131.739 162.203,137.739 159.5,143.5C 159.647,140.557 160.313,137.724 161.5,135C 161.138,133.775 160.638,132.609 160,131.5C 158.408,135.029 157.074,138.695 156,142.5C 155.329,143.252 154.496,143.586 153.5,143.5C 154.932,137.859 156.932,132.525 159.5,127.5C 161.284,126.426 162.451,124.76 163,122.5C 164.359,123.365 165.526,124.365 166.5,125.5 Z"/></g>
<g><path style="opacity:1" fill="#264474" d="M 175.5,121.5 C 177.265,122.461 179.265,122.795 181.5,122.5C 180.909,125.925 179.575,128.925 177.5,131.5C 177.475,128.821 176.142,127.488 173.5,127.5C 174.25,131.775 172.917,135.109 169.5,137.5C 171.207,131.962 173.207,126.629 175.5,121.5 Z"/></g>
<g><path style="opacity:1" fill="#e9f2f4" d="M 198.5,66.5 C 200.722,66.5587 201.722,67.7253 201.5,70C 201.205,72.9234 199.871,75.2568 197.5,77C 198.056,77.3826 198.389,77.8826 198.5,78.5C 195.138,78.0695 192.305,79.0695 190,81.5C 187.334,87.3328 185.167,93.3328 183.5,99.5C 180.663,106.671 177.996,114.004 175.5,121.5C 173.207,126.629 171.207,131.962 169.5,137.5C 168.662,137.842 168.328,138.508 168.5,139.5C 167.512,142.076 166.512,144.743 165.5,147.5C 163.305,152.751 161.305,158.084 159.5,163.5C 157.833,163.5 156.167,163.5 154.5,163.5C 154.5,162.5 154.5,161.5 154.5,160.5C 154.5,160.167 154.5,159.833 154.5,159.5C 156.661,154.407 158.327,149.074 159.5,143.5C 162.203,137.739 164.536,131.739 166.5,125.5C 167.833,121.167 169.167,116.833 170.5,112.5C 174.208,103.046 177.541,93.379 180.5,83.5C 182.057,80.376 183.723,77.2093 185.5,74C 189.821,73.501 194.154,73.3343 198.5,73.5C 198.5,71.5 198.5,69.5 198.5,67.5C 198.5,67.1667 198.5,66.8333 198.5,66.5 Z"/></g>
<g><path style="opacity:1" fill="#23377b" d="M 177.5,131.5 C 176.441,136.414 174.774,141.08 172.5,145.5C 172.664,142.813 172.497,140.146 172,137.5C 171.184,138.823 170.017,139.489 168.5,139.5C 168.328,138.508 168.662,137.842 169.5,137.5C 172.917,135.109 174.25,131.775 173.5,127.5C 176.142,127.488 177.475,128.821 177.5,131.5 Z"/></g>
<g><path style="opacity:1" fill="#eef2f6" d="M 106.5,103.5 C 108.176,107.587 109.842,111.587 111.5,115.5C 111.5,124.833 111.5,134.167 111.5,143.5C 111.5,144.5 111.5,145.5 111.5,146.5C 110.436,151.635 108.103,155.968 104.5,159.5C 101.777,161.281 98.9432,162.948 96,164.5C 95.5357,163.906 95.369,163.239 95.5,162.5C 100.881,157.4 103.881,151.067 104.5,143.5C 105.167,130.167 105.833,116.833 106.5,103.5 Z"/></g>
<g><path style="opacity:1" fill="#27387c" d="M 119.5,121.5 C 122.587,127.075 124.92,133.075 126.5,139.5C 125.175,140.953 124.342,140.619 124,138.5C 123.833,140 123.667,141.5 123.5,143C 124.346,147.196 125.346,151.363 126.5,155.5C 123.535,149.792 121.035,143.792 119,137.5C 118.823,141.356 118.323,145.023 117.5,148.5C 117.5,146.833 117.5,145.167 117.5,143.5C 116.5,143.5 115.5,143.5 114.5,143.5C 114.5,144.5 114.5,145.5 114.5,146.5C 113.5,146.5 112.5,146.5 111.5,146.5C 111.5,145.5 111.5,144.5 111.5,143.5C 112.488,138.36 112.821,133.026 112.5,127.5C 113.5,127.5 114.5,127.5 115.5,127.5C 115.5,129.5 115.5,131.5 115.5,133.5C 119.068,133.241 120.401,131.241 119.5,127.5C 118.5,127.5 117.5,127.5 116.5,127.5C 116.031,124.607 117.031,122.607 119.5,121.5 Z"/></g>
<g><path style="opacity:1" fill="#173d71" d="M 104.5,119.5 C 104.5,122.167 104.5,124.833 104.5,127.5C 103.833,132.681 103.167,138.015 102.5,143.5C 101.833,138.015 101.167,132.681 100.5,127.5C 100.248,124.68 100.748,122.014 102,119.5C 102.333,120.167 102.667,120.833 103,121.5C 103.278,120.584 103.778,119.918 104.5,119.5 Z"/></g>
<g><path style="opacity:1" fill="#e9eff4" d="M 172.5,89.5 C 169.659,96.682 166.993,104.015 164.5,111.5C 162.834,116.829 161.167,122.162 159.5,127.5C 156.932,132.525 154.932,137.859 153.5,143.5C 150.769,150.027 148.435,156.694 146.5,163.5C 142.563,163.793 138.73,163.46 135,162.5C 132.097,154.726 129.264,147.059 126.5,139.5C 124.92,133.075 122.587,127.075 119.5,121.5C 118.5,118.167 117.5,114.833 116.5,111.5C 113.5,103.5 110.5,95.5 107.5,87.5C 107.97,86.3065 108.97,85.6399 110.5,85.5C 111.5,85.6667 112.5,85.8333 113.5,86C 114.457,89.4039 115.79,92.5705 117.5,95.5C 118.932,101.141 120.932,106.475 123.5,111.5C 126.129,120.39 129.129,129.057 132.5,137.5C 134.04,142.918 135.873,148.251 138,153.5C 140.235,154.98 142.068,154.647 143.5,152.5C 143.5,151.5 143.5,150.5 143.5,149.5C 145.267,147.208 146.267,144.542 146.5,141.5C 150.752,131.413 154.419,121.079 157.5,110.5C 159.739,105.784 161.405,100.784 162.5,95.5C 165.263,89.3963 167.763,83.0629 170,76.5C 171.933,73.6145 174.433,72.9479 177.5,74.5C 175.229,79.313 173.562,84.313 172.5,89.5 Z"/></g>
<g><path style="opacity:1" fill="#252b7b" d="M 143.5,132.5 C 144.833,132.5 146.167,132.5 147.5,132.5C 147.296,135.518 146.963,138.518 146.5,141.5C 146.267,144.542 145.267,147.208 143.5,149.5C 141.822,146.448 141.155,143.115 141.5,139.5C 142.015,137.106 142.681,134.772 143.5,132.5 Z"/></g>
<g><path style="opacity:1" fill="#1e4877" d="M 123.5,111.5 C 125.5,111.5 127.5,111.5 129.5,111.5C 133.421,120.664 136.754,129.998 139.5,139.5C 139.201,141.455 138.201,142.789 136.5,143.5C 137.329,140.531 137.495,137.531 137,134.5C 133.356,130.578 131.856,131.578 132.5,137.5C 129.129,129.057 126.129,120.39 123.5,111.5 Z"/></g>
<g><path style="opacity:1" fill="#16467c" d="M 157.5,110.5 C 154.419,121.079 150.752,131.413 146.5,141.5C 146.963,138.518 147.296,135.518 147.5,132.5C 146.167,132.5 144.833,132.5 143.5,132.5C 143.5,130.833 143.5,129.167 143.5,127.5C 143.5,124.833 143.5,122.167 143.5,119.5C 144.5,119.5 145.5,119.5 146.5,119.5C 146.56,120.043 146.893,120.376 147.5,120.5C 148.467,117.237 149.801,114.237 151.5,111.5C 153.054,110.086 154.388,108.419 155.5,106.5C 156.362,107.766 157.029,109.099 157.5,110.5 Z"/></g>
<g><path style="opacity:1" fill="#eaf1f2" d="M 134.5,105.5 C 134.833,105.5 135.167,105.5 135.5,105.5C 137.599,113.138 140.266,120.471 143.5,127.5C 143.5,129.167 143.5,130.833 143.5,132.5C 142.681,134.772 142.015,137.106 141.5,139.5C 140.833,139.5 140.167,139.5 139.5,139.5C 136.754,129.998 133.421,120.664 129.5,111.5C 128.629,108.888 127.963,106.221 127.5,103.5C 127.212,100.134 127.046,96.8004 127,93.5C 127.71,94.9733 128.876,95.6399 130.5,95.5C 131.263,99.1368 132.597,102.47 134.5,105.5 Z"/></g>
<g><path style="opacity:1" fill="#18547b" d="M 142.5,106.5 C 144.111,110.729 145.444,115.062 146.5,119.5C 145.5,119.5 144.5,119.5 143.5,119.5C 143.5,122.167 143.5,124.833 143.5,127.5C 140.266,120.471 137.599,113.138 135.5,105.5C 136.011,103.805 136.678,102.139 137.5,100.5C 138.333,102.5 139.167,104.5 140,106.5C 140.77,107.598 141.603,107.598 142.5,106.5 Z"/></g>
<g><path style="opacity:1" fill="#186681" d="M 122.5,92.5 C 123.973,96.2508 125.64,99.9175 127.5,103.5C 127.963,106.221 128.629,108.888 129.5,111.5C 127.5,111.5 125.5,111.5 123.5,111.5C 120.932,106.475 118.932,101.141 117.5,95.5C 119.664,95.2785 121.33,94.2785 122.5,92.5 Z"/></g>
<g><path style="opacity:1" fill="#292564" d="M 76.5,148.5 C 76.1667,148.5 75.8333,148.5 75.5,148.5C 74.2126,146.363 73.3793,144.03 73,141.5C 71.4555,140.179 70.2888,140.512 69.5,142.5C 70.3417,145.877 71.8417,148.877 74,151.5C 74.4935,153.134 74.6602,154.801 74.5,156.5C 73.1667,156.5 71.8333,156.5 70.5,156.5C 70.5,155.167 70.5,153.833 70.5,152.5C 71.0431,152.44 71.3764,152.107 71.5,151.5C 69.4642,147.396 68.4642,143.062 68.5,138.5C 70.5,138.5 72.5,138.5 74.5,138.5C 75.0396,141.865 75.7063,145.198 76.5,148.5 Z"/></g>
<g><path style="opacity:1" fill="#2c2873" d="M 65.5,151.5 C 63.3196,150.145 61.3196,150.311 59.5,152C 61.8369,153.634 63.8369,155.467 65.5,157.5C 62.6277,156.474 60.1277,154.808 58,152.5C 55.7005,148.104 54.5339,143.438 54.5,138.5C 56.5,138.5 58.5,138.5 60.5,138.5C 60.4077,143.563 62.0744,147.897 65.5,151.5 Z"/></g>
<g><path style="opacity:1" fill="#31297c" d="M 159.5,143.5 C 158.327,149.074 156.661,154.407 154.5,159.5C 153.566,158.432 153.232,157.099 153.5,155.5C 152.5,155.5 151.5,155.5 150.5,155.5C 150.167,158.167 149.833,160.833 149.5,163.5C 148.5,163.5 147.5,163.5 146.5,163.5C 148.435,156.694 150.769,150.027 153.5,143.5C 154.496,143.586 155.329,143.252 156,142.5C 157.074,138.695 158.408,135.029 160,131.5C 160.638,132.609 161.138,133.775 161.5,135C 160.313,137.724 159.647,140.557 159.5,143.5 Z"/></g>
<g><path style="opacity:1" fill="#2c2677" d="M 172.5,145.5 C 171.071,151.13 169.071,156.464 166.5,161.5C 167.884,156.99 168.884,152.323 169.5,147.5C 168.167,147.5 166.833,147.5 165.5,147.5C 166.512,144.743 167.512,142.076 168.5,139.5C 170.017,139.489 171.184,138.823 172,137.5C 172.497,140.146 172.664,142.813 172.5,145.5 Z"/></g>
<g><path style="opacity:1" fill="#2b208d" d="M 139.5,139.5 C 140.167,139.5 140.833,139.5 141.5,139.5C 141.155,143.115 141.822,146.448 143.5,149.5C 143.5,150.5 143.5,151.5 143.5,152.5C 139.496,150.837 137.163,147.837 136.5,143.5C 138.201,142.789 139.201,141.455 139.5,139.5 Z"/></g>
<g><path style="opacity:1" fill="#29297c" d="M 85.5,127.5 C 86.8333,127.5 88.1667,127.5 89.5,127.5C 89.5,133.5 89.5,139.5 89.5,145.5C 89.5095,149.503 87.8429,152.503 84.5,154.5C 84.5,153.167 84.5,151.833 84.5,150.5C 81.5448,151.159 78.5448,151.492 75.5,151.5C 75.5,150.5 75.5,149.5 75.5,148.5C 75.8333,148.5 76.1667,148.5 76.5,148.5C 77.601,149.8 78.9343,150.3 80.5,150C 82.6966,147.579 84.03,144.745 84.5,141.5C 85.4861,137.03 85.8195,132.363 85.5,127.5 Z"/></g>
<g><path style="opacity:1" fill="#3c2377" d="M 126.5,139.5 C 129.264,147.059 132.097,154.726 135,162.5C 138.73,163.46 142.563,163.793 146.5,163.5C 141.695,164.487 136.695,164.821 131.5,164.5C 131.5,165.833 131.5,167.167 131.5,168.5C 141.794,169.427 152.128,169.76 162.5,169.5C 152.342,170.659 142.008,170.825 131.5,170C 129.393,165.293 127.727,160.46 126.5,155.5C 125.346,151.363 124.346,147.196 123.5,143C 123.667,141.5 123.833,140 124,138.5C 124.342,140.619 125.175,140.953 126.5,139.5 Z"/></g>
<g><path style="opacity:1" fill="#2e2d77" d="M 136.5,143.5 C 137.163,147.837 139.496,150.837 143.5,152.5C 142.068,154.647 140.235,154.98 138,153.5C 135.873,148.251 134.04,142.918 132.5,137.5C 131.856,131.578 133.356,130.578 137,134.5C 137.495,137.531 137.329,140.531 136.5,143.5 Z"/></g>
<g><path style="opacity:1" fill="#2b2375" d="M 98.5,127.5 C 99.1667,127.5 99.8333,127.5 100.5,127.5C 101.167,132.681 101.833,138.015 102.5,143.5C 103.167,138.015 103.833,132.681 104.5,127.5C 104.5,132.833 104.5,138.167 104.5,143.5C 103.881,151.067 100.881,157.4 95.5,162.5C 95.4802,160.857 96.1468,159.524 97.5,158.5C 96.6698,156.865 96.5031,155.198 97,153.5C 95.3244,155.315 94.4911,157.149 94.5,159C 93.2068,159.49 91.8734,159.657 90.5,159.5C 92.6672,157.17 94.3338,154.503 95.5,151.5C 96.793,150.158 97.6264,148.491 98,146.5C 98.4995,140.175 98.6662,133.842 98.5,127.5 Z"/></g>
<g><path style="opacity:1" fill="#3a2288" d="M 75.5,148.5 C 75.5,149.5 75.5,150.5 75.5,151.5C 78.5448,151.492 81.5448,151.159 84.5,150.5C 84.5,151.833 84.5,153.167 84.5,154.5C 78.7131,159.513 72.3798,160.513 65.5,157.5C 63.8369,155.467 61.8369,153.634 59.5,152C 61.3196,150.311 63.3196,150.145 65.5,151.5C 67.1172,152.038 68.7839,152.371 70.5,152.5C 70.5,153.833 70.5,155.167 70.5,156.5C 71.8333,156.5 73.1667,156.5 74.5,156.5C 74.6602,154.801 74.4935,153.134 74,151.5C 71.8417,148.877 70.3417,145.877 69.5,142.5C 70.2888,140.512 71.4555,140.179 73,141.5C 73.3793,144.03 74.2126,146.363 75.5,148.5 Z"/></g>
<g><path style="opacity:1" fill="#351e76" d="M 65.5,165.5 C 62.0283,165.874 59.0283,164.874 56.5,162.5C 54.8888,163.32 54.2222,164.654 54.5,166.5C 44.9403,160.227 40.2736,151.227 40.5,139.5C 42.5,139.5 44.5,139.5 46.5,139.5C 47.0096,152.551 53.3429,161.217 65.5,165.5 Z"/></g>
<g><path style="opacity:1" fill="#2e1a70" d="M 117.5,148.5 C 116.18,155.151 112.846,160.484 107.5,164.5C 108.038,162.883 108.371,161.216 108.5,159.5C 107.167,159.5 105.833,159.5 104.5,159.5C 108.103,155.968 110.436,151.635 111.5,146.5C 112.5,146.5 113.5,146.5 114.5,146.5C 114.5,145.5 114.5,144.5 114.5,143.5C 115.5,143.5 116.5,143.5 117.5,143.5C 117.5,145.167 117.5,146.833 117.5,148.5 Z"/></g>
<g><path style="opacity:1" fill="#3c127a" d="M 165.5,147.5 C 166.833,147.5 168.167,147.5 169.5,147.5C 168.884,152.323 167.884,156.99 166.5,161.5C 166.171,164.827 164.837,167.493 162.5,169.5C 152.128,169.76 141.794,169.427 131.5,168.5C 131.5,167.167 131.5,165.833 131.5,164.5C 136.695,164.821 141.695,164.487 146.5,163.5C 147.5,163.5 148.5,163.5 149.5,163.5C 149.833,160.833 150.167,158.167 150.5,155.5C 151.5,155.5 152.5,155.5 153.5,155.5C 153.232,157.099 153.566,158.432 154.5,159.5C 154.5,159.833 154.5,160.167 154.5,160.5C 153.566,161.568 153.232,162.901 153.5,164.5C 155.735,164.795 157.735,164.461 159.5,163.5C 161.305,158.084 163.305,152.751 165.5,147.5 Z"/></g>
<g><path style="opacity:1" fill="#8c6ea8" d="M 154.5,160.5 C 154.5,161.5 154.5,162.5 154.5,163.5C 156.167,163.5 157.833,163.5 159.5,163.5C 157.735,164.461 155.735,164.795 153.5,164.5C 153.232,162.901 153.566,161.568 154.5,160.5 Z"/></g>
<g><path style="opacity:1" fill="#440d7c" d="M 95.5,162.5 C 95.369,163.239 95.5357,163.906 96,164.5C 98.9432,162.948 101.777,161.281 104.5,159.5C 105.833,159.5 107.167,159.5 108.5,159.5C 108.371,161.216 108.038,162.883 107.5,164.5C 104.01,167.415 100.01,169.582 95.5,171C 84.8333,171.667 74.1667,171.667 63.5,171C 59.9647,170.337 56.9647,168.837 54.5,166.5C 54.2222,164.654 54.8888,163.32 56.5,162.5C 59.0283,164.874 62.0283,165.874 65.5,165.5C 74.7425,166.924 83.0758,164.924 90.5,159.5C 91.8734,159.657 93.2068,159.49 94.5,159C 94.4911,157.149 95.3244,155.315 97,153.5C 96.5031,155.198 96.6698,156.865 97.5,158.5C 96.1468,159.524 95.4802,160.857 95.5,162.5 Z"/></g>
</svg>
