<?xml version="1.0" encoding="UTF-8"?>
<svg xmlns="http://www.w3.org/2000/svg" xmlns:xlink="http://www.w3.org/1999/xlink" width="120px" height="120px" viewBox="0 0 120 120" version="1.1">
<g id="surface1">
<path style=" stroke:none;fill-rule:evenodd;fill:rgb(97.254902%,97.254902%,97.254902%);fill-opacity:1;" d="M -0.25 -0.25 C 39.75 -0.25 79.75 -0.25 119.75 -0.25 C 119.75 39.75 119.75 79.75 119.75 119.75 C 79.75 119.75 39.75 119.75 -0.25 119.75 C -0.25 79.75 -0.25 39.75 -0.25 -0.25 Z M -0.25 -0.25 "/>
<path style=" stroke:none;fill-rule:evenodd;fill:rgb(85.490197%,97.647059%,96.470588%);fill-opacity:1;" d="M 60.75 33.25 C 50.75 33.167969 40.75 33.25 30.75 33.5 C 30.289062 34.519531 30.121094 35.605469 30.25 36.75 C 40.789062 36.589844 51.289062 36.757812 61.75 37.25 C 64.070312 42.210938 65.902344 47.375 67.25 52.75 C 66.296875 51.234375 65.632812 49.570312 65.25 47.75 C 64.4375 47.820312 63.855469 47.488281 63.5 46.75 C 63.523438 48.398438 63.605469 50.066406 63.75 51.75 C 62.820312 49.957031 61.988281 48.125 61.25 46.25 C 61.082031 45.25 60.917969 44.25 60.75 43.25 C 61.726562 42.285156 62.390625 41.117188 62.75 39.75 C 61.265625 39.628906 60.597656 38.792969 60.75 37.25 C 51.078125 37.082031 41.410156 37.25 31.75 37.75 C 40.578125 38.25 49.410156 38.417969 58.25 38.25 C 58.25 38.75 58.25 39.25 58.25 39.75 C 49.105469 39.261719 39.941406 39.097656 30.75 39.25 C 30.75 40.417969 30.75 41.582031 30.75 42.75 C 29.78125 42.492188 29.28125 41.828125 29.25 40.75 C 29.773438 39.972656 30.105469 39.136719 30.25 38.25 C 29.417969 38.25 28.582031 38.25 27.75 38.25 C 28.566406 36.503906 29.398438 34.753906 30.25 33 C 40.503906 32.585938 50.667969 32.667969 60.75 33.25 Z M 60.75 33.25 "/>
<path style=" stroke:none;fill-rule:evenodd;fill:rgb(52.549022%,80.000001%,78.039217%);fill-opacity:1;" d="M 99.25 33.25 C 99.25 33.417969 99.25 33.582031 99.25 33.75 C 94.917969 33.75 90.582031 33.75 86.25 33.75 C 86.40625 33.261719 86.738281 32.929688 87.25 32.75 C 91.222656 33.234375 95.222656 33.402344 99.25 33.25 Z M 99.25 33.25 "/>
<path style=" stroke:none;fill-rule:evenodd;fill:rgb(14.117648%,58.039218%,54.901963%);fill-opacity:1;" d="M 60.75 33.25 C 62.828125 33.664062 64.328125 34.828125 65.25 36.75 C 64.050781 36.820312 62.886719 36.984375 61.75 37.25 C 51.289062 36.757812 40.789062 36.589844 30.25 36.75 C 30.121094 35.605469 30.289062 34.519531 30.75 33.5 C 40.75 33.25 50.75 33.167969 60.75 33.25 Z M 60.75 33.25 "/>
<path style=" stroke:none;fill-rule:evenodd;fill:rgb(2.745098%,54.11765%,60.000002%);fill-opacity:1;" d="M 31.75 34.75 C 39.757812 34.582031 47.757812 34.75 55.75 35.25 C 51.75 35.417969 47.75 35.582031 43.75 35.75 C 39.570312 35.75 35.570312 35.414062 31.75 34.75 Z M 31.75 34.75 "/>
<path style=" stroke:none;fill-rule:evenodd;fill:rgb(96.862745%,96.078432%,93.725491%);fill-opacity:1;" d="M 60.75 43.25 C 60.285156 41.816406 59.449219 40.652344 58.25 39.75 C 58.25 39.25 58.25 38.75 58.25 38.25 C 49.410156 38.417969 40.578125 38.25 31.75 37.75 C 41.410156 37.25 51.078125 37.082031 60.75 37.25 C 60.597656 38.792969 61.265625 39.628906 62.75 39.75 C 62.390625 41.117188 61.726562 42.285156 60.75 43.25 Z M 60.75 43.25 "/>
<path style=" stroke:none;fill-rule:evenodd;fill:rgb(8.627451%,54.11765%,52.156866%);fill-opacity:1;" d="M 86.25 33.75 C 90.582031 33.75 94.917969 33.75 99.25 33.75 C 99.25 34.75 99.25 35.75 99.25 36.75 C 97.078125 36.667969 94.910156 36.75 92.75 37 C 91.863281 38.605469 91.027344 40.1875 90.25 41.75 C 89.589844 42.472656 88.757812 42.804688 87.75 42.75 C 87.832031 44.425781 87.75 46.089844 87.5 47.75 C 87.207031 46.667969 86.789062 45.667969 86.25 44.75 C 86.78125 42.15625 87.613281 39.65625 88.75 37.25 C 87.214844 36.472656 85.964844 36.808594 85 38.25 C 83.882812 41.53125 82.632812 44.699219 81.25 47.75 C 81.445312 45.777344 81.109375 43.945312 80.25 42.25 C 80.710938 39.734375 81.628906 37.402344 83 35.25 C 83.867188 34.273438 84.949219 33.773438 86.25 33.75 Z M 86.25 33.75 "/>
<path style=" stroke:none;fill-rule:evenodd;fill:rgb(10.588235%,49.019608%,52.156866%);fill-opacity:1;" d="M 61.75 37.25 C 62.886719 36.984375 64.050781 36.820312 65.25 36.75 C 67.632812 42.066406 69.632812 47.566406 71.25 53.25 C 70.800781 53.800781 70.386719 53.800781 70 53.25 C 69.582031 52.25 69.167969 51.25 68.75 50.25 C 68.339844 51.070312 68.003906 51.902344 67.75 52.75 C 67.582031 52.75 67.417969 52.75 67.25 52.75 C 65.902344 47.375 64.070312 42.210938 61.75 37.25 Z M 61.75 37.25 "/>
<path style=" stroke:none;fill-rule:evenodd;fill:rgb(12.941177%,47.058824%,52.156866%);fill-opacity:1;" d="M 99.25 39.25 C 99.25 40.417969 99.25 41.582031 99.25 42.75 C 98.664062 42.640625 98.164062 42.808594 97.75 43.25 C 96.53125 46.515625 95.199219 49.679688 93.75 52.75 C 93.65625 50.960938 93.992188 49.292969 94.75 47.75 C 94.25 47.75 93.75 47.75 93.25 47.75 C 93.457031 48.984375 92.957031 49.652344 91.75 49.75 C 92.582031 46.667969 93.667969 43.667969 95 40.75 C 96.152344 39.535156 97.570312 39.035156 99.25 39.25 Z M 99.25 39.25 "/>
<path style=" stroke:none;fill-rule:evenodd;fill:rgb(16.470589%,50.588238%,54.901963%);fill-opacity:1;" d="M 58.25 39.75 C 59.449219 40.652344 60.285156 41.816406 60.75 43.25 C 60.917969 44.25 61.082031 45.25 61.25 46.25 C 60.664062 47.140625 59.832031 47.640625 58.75 47.75 C 57.894531 46.285156 57.226562 44.703125 56.75 43 C 56.25 42.917969 55.75 42.832031 55.25 42.75 C 54.484375 42.820312 53.984375 43.152344 53.75 43.75 C 52.417969 42.867188 50.917969 42.53125 49.25 42.75 C 49.082031 42.75 48.917969 42.75 48.75 42.75 C 47.75 42.75 46.75 42.75 45.75 42.75 C 45.914062 52.503906 45.75 62.171875 45.25 71.75 C 45.25 67.75 45.25 63.75 45.25 59.75 C 45.332031 55.414062 45.25 51.078125 45 46.75 C 44.75 47 44.5 47.25 44.25 47.5 C 44.835938 49.410156 44.753906 51.328125 44 53.25 C 43.527344 52.453125 42.941406 51.785156 42.25 51.25 C 42.25 48.417969 42.25 45.582031 42.25 42.75 C 38.417969 42.75 34.582031 42.75 30.75 42.75 C 30.75 41.582031 30.75 40.417969 30.75 39.25 C 39.941406 39.097656 49.105469 39.261719 58.25 39.75 Z M 58.25 39.75 "/>
<path style=" stroke:none;fill-rule:evenodd;fill:rgb(8.627451%,41.568628%,50.196081%);fill-opacity:1;" d="M 80.25 42.25 C 81.109375 43.945312 81.445312 45.777344 81.25 47.75 C 80.703125 50.390625 79.871094 52.890625 78.75 55.25 C 78.515625 54.550781 78.179688 53.882812 77.75 53.25 C 77.195312 54.210938 76.527344 55.042969 75.75 55.75 C 77.128906 51.171875 78.628906 46.671875 80.25 42.25 Z M 80.25 42.25 "/>
<path style=" stroke:none;fill-rule:evenodd;fill:rgb(7.058824%,41.176471%,50.980395%);fill-opacity:1;" d="M 49.25 42.75 C 50.917969 42.53125 52.417969 42.867188 53.75 43.75 C 55.25 47.75 56.75 51.75 58.25 55.75 C 57.75 55.75 57.25 55.75 56.75 55.75 C 56.859375 55.164062 56.691406 54.664062 56.25 54.25 C 55.761719 55.371094 55.597656 56.539062 55.75 57.75 C 54.921875 55.792969 54.089844 53.792969 53.25 51.75 C 52.984375 50.269531 52.652344 50.101562 52.25 51.25 C 51.867188 51.632812 51.617188 52.132812 51.5 52.75 C 50.800781 52.09375 50.300781 52.257812 50 53.25 C 49.910156 51.320312 49.660156 49.488281 49.25 47.75 C 49.25 46.082031 49.25 44.417969 49.25 42.75 Z M 49.25 42.75 "/>
<path style=" stroke:none;fill-rule:evenodd;fill:rgb(9.803922%,35.686275%,45.882353%);fill-opacity:1;" d="M 45.25 59.75 C 44.761719 58.527344 44.597656 57.191406 44.75 55.75 C 44.082031 55.75 43.417969 55.75 42.75 55.75 C 42.75 58.417969 42.75 61.082031 42.75 63.75 C 42.910156 66.179688 42.742188 68.515625 42.25 70.75 C 42.25 64.25 42.25 57.75 42.25 51.25 C 42.941406 51.785156 43.527344 52.453125 44 53.25 C 44.753906 51.328125 44.835938 49.410156 44.25 47.5 C 44.5 47.25 44.75 47 45 46.75 C 45.25 51.078125 45.332031 55.414062 45.25 59.75 Z M 45.25 59.75 "/>
<path style=" stroke:none;fill-rule:evenodd;fill:rgb(64.313728%,74.509805%,87.058824%);fill-opacity:1;" d="M 53.25 51.75 C 52.917969 58.417969 52.582031 65.082031 52.25 71.75 C 52.25 69.082031 52.25 66.417969 52.25 63.75 C 52.25 62.417969 52.25 61.082031 52.25 59.75 C 52.25 56.917969 52.25 54.082031 52.25 51.25 C 52.652344 50.101562 52.984375 50.269531 53.25 51.75 Z M 53.25 51.75 "/>
<path style=" stroke:none;fill-rule:evenodd;fill:rgb(10.588235%,40.392157%,49.019608%);fill-opacity:1;" d="M 90.25 41.75 C 88.769531 46.691406 87.105469 51.523438 85.25 56.25 C 85.398438 55.199219 85.234375 54.199219 84.75 53.25 C 84.273438 54.023438 84.109375 54.855469 84.25 55.75 C 83.582031 55.75 82.917969 55.75 82.25 55.75 C 83.496094 52.007812 84.828125 48.339844 86.25 44.75 C 86.789062 45.667969 87.207031 46.667969 87.5 47.75 C 87.75 46.089844 87.832031 44.425781 87.75 42.75 C 88.757812 42.804688 89.589844 42.472656 90.25 41.75 Z M 90.25 41.75 "/>
<path style=" stroke:none;fill-rule:evenodd;fill:rgb(66.274512%,76.47059%,83.92157%);fill-opacity:1;" d="M 48.75 42.75 C 48.917969 42.75 49.082031 42.75 49.25 42.75 C 49.25 44.417969 49.25 46.082031 49.25 47.75 C 49.25 53.082031 49.25 58.417969 49.25 63.75 C 49.332031 66.921875 49.25 70.085938 49 73.25 C 48.8125 74.246094 48.398438 75.078125 47.75 75.75 C 48.683594 64.789062 49.015625 53.789062 48.75 42.75 Z M 48.75 42.75 "/>
<path style=" stroke:none;fill-rule:evenodd;fill:rgb(5.490196%,31.37255%,48.627451%);fill-opacity:1;" d="M 49.25 47.75 C 49.660156 49.488281 49.910156 51.320312 50 53.25 C 50.300781 52.257812 50.800781 52.09375 51.5 52.75 C 51.617188 52.132812 51.867188 51.632812 52.25 51.25 C 52.25 54.082031 52.25 56.917969 52.25 59.75 C 51.890625 59.960938 51.640625 60.292969 51.5 60.75 C 51.332031 60.417969 51.167969 60.082031 51 59.75 C 50.375 61.007812 50.125 62.339844 50.25 63.75 C 49.917969 63.75 49.582031 63.75 49.25 63.75 C 49.25 58.417969 49.25 53.082031 49.25 47.75 Z M 49.25 47.75 "/>
<path style=" stroke:none;fill-rule:evenodd;fill:rgb(6.27451%,27.843139%,48.235294%);fill-opacity:1;" d="M 45.25 59.75 C 45.25 63.75 45.25 67.75 45.25 71.75 C 45.335938 72.246094 45.167969 72.578125 44.75 72.75 C 44.75 69.75 44.75 66.75 44.75 63.75 C 44.082031 63.75 43.417969 63.75 42.75 63.75 C 42.75 61.082031 42.75 58.417969 42.75 55.75 C 43.417969 55.75 44.082031 55.75 44.75 55.75 C 44.597656 57.191406 44.761719 58.527344 45.25 59.75 Z M 45.25 59.75 "/>
<path style=" stroke:none;fill-rule:evenodd;fill:rgb(8.627451%,30.980393%,47.450981%);fill-opacity:1;" d="M 85.25 56.25 C 84.582031 58.417969 83.917969 60.582031 83.25 62.75 C 82.761719 62.183594 82.179688 61.683594 81.5 61.25 C 81.226562 62.378906 80.640625 63.214844 79.75 63.75 C 80.582031 61.082031 81.417969 58.414062 82.25 55.75 C 82.917969 55.75 83.582031 55.75 84.25 55.75 C 84.109375 54.855469 84.273438 54.023438 84.75 53.25 C 85.234375 54.199219 85.398438 55.199219 85.25 56.25 Z M 85.25 56.25 "/>
<path style=" stroke:none;fill-rule:evenodd;fill:rgb(8.235294%,34.117648%,45.882353%);fill-opacity:1;" d="M 93.75 52.75 C 92.945312 55.660156 91.945312 58.496094 90.75 61.25 C 89.632812 61.398438 88.632812 61.230469 87.75 60.75 C 88.996094 57.003906 90.332031 53.335938 91.75 49.75 C 92.957031 49.652344 93.457031 48.984375 93.25 47.75 C 93.75 47.75 94.25 47.75 94.75 47.75 C 93.992188 49.292969 93.65625 50.960938 93.75 52.75 Z M 93.75 52.75 "/>
<path style=" stroke:none;fill-rule:evenodd;fill:rgb(15.686275%,32.156864%,50.980395%);fill-opacity:1;" d="M 58.25 55.75 C 58.75 57.417969 59.25 59.082031 59.75 60.75 C 58.515625 61.304688 58.015625 62.304688 58.25 63.75 C 58.75 63.75 59.25 63.75 59.75 63.75 C 60.199219 65.621094 59.535156 66.621094 57.75 66.75 C 57.75 65.75 57.75 64.75 57.75 63.75 C 57.25 63.75 56.75 63.75 56.25 63.75 C 56.410156 66.511719 56.242188 69.179688 55.75 71.75 C 55.75 67.082031 55.75 62.417969 55.75 57.75 C 55.597656 56.539062 55.761719 55.371094 56.25 54.25 C 56.691406 54.664062 56.859375 55.164062 56.75 55.75 C 57.25 55.75 57.75 55.75 58.25 55.75 Z M 58.25 55.75 "/>
<path style=" stroke:none;fill-rule:evenodd;fill:rgb(13.725491%,23.529412%,46.666667%);fill-opacity:1;" d="M 83.25 62.75 C 82.269531 65.871094 81.101562 68.871094 79.75 71.75 C 79.824219 70.277344 80.15625 68.863281 80.75 67.5 C 80.570312 66.886719 80.320312 66.304688 80 65.75 C 79.203125 67.515625 78.535156 69.347656 78 71.25 C 77.664062 71.625 77.246094 71.792969 76.75 71.75 C 77.464844 68.929688 78.464844 66.261719 79.75 63.75 C 80.640625 63.214844 81.226562 62.378906 81.5 61.25 C 82.179688 61.683594 82.761719 62.183594 83.25 62.75 Z M 83.25 62.75 "/>
<path style=" stroke:none;fill-rule:evenodd;fill:rgb(14.901961%,26.666668%,45.490196%);fill-opacity:1;" d="M 87.75 60.75 C 88.632812 61.230469 89.632812 61.398438 90.75 61.25 C 90.453125 62.960938 89.789062 64.460938 88.75 65.75 C 88.738281 64.410156 88.070312 63.742188 86.75 63.75 C 87.125 65.886719 86.457031 67.554688 84.75 68.75 C 85.601562 65.980469 86.601562 63.316406 87.75 60.75 Z M 87.75 60.75 "/>
<path style=" stroke:none;fill-rule:evenodd;fill:rgb(91.37255%,94.901961%,95.686275%);fill-opacity:1;" d="M 99.25 33.25 C 100.359375 33.28125 100.859375 33.863281 100.75 35 C 100.601562 36.460938 99.933594 37.628906 98.75 38.5 C 99.027344 38.691406 99.195312 38.941406 99.25 39.25 C 97.570312 39.035156 96.152344 39.535156 95 40.75 C 93.667969 43.667969 92.582031 46.667969 91.75 49.75 C 90.332031 53.335938 88.996094 57.003906 87.75 60.75 C 86.601562 63.316406 85.601562 65.980469 84.75 68.75 C 84.332031 68.921875 84.164062 69.253906 84.25 69.75 C 83.757812 71.039062 83.257812 72.371094 82.75 73.75 C 81.652344 76.375 80.652344 79.042969 79.75 81.75 C 78.917969 81.75 78.082031 81.75 77.25 81.75 C 77.25 81.25 77.25 80.75 77.25 80.25 C 77.25 80.082031 77.25 79.917969 77.25 79.75 C 78.332031 77.203125 79.164062 74.535156 79.75 71.75 C 81.101562 68.871094 82.269531 65.871094 83.25 62.75 C 83.917969 60.582031 84.582031 58.417969 85.25 56.25 C 87.105469 51.523438 88.769531 46.691406 90.25 41.75 C 91.027344 40.1875 91.863281 38.605469 92.75 37 C 94.910156 36.75 97.078125 36.667969 99.25 36.75 C 99.25 35.75 99.25 34.75 99.25 33.75 C 99.25 33.582031 99.25 33.417969 99.25 33.25 Z M 99.25 33.25 "/>
<path style=" stroke:none;fill-rule:evenodd;fill:rgb(13.725491%,21.568628%,48.235294%);fill-opacity:1;" d="M 88.75 65.75 C 88.21875 68.207031 87.386719 70.539062 86.25 72.75 C 86.332031 71.40625 86.25 70.074219 86 68.75 C 85.59375 69.410156 85.007812 69.746094 84.25 69.75 C 84.164062 69.253906 84.332031 68.921875 84.75 68.75 C 86.457031 67.554688 87.125 65.886719 86.75 63.75 C 88.070312 63.742188 88.738281 64.410156 88.75 65.75 Z M 88.75 65.75 "/>
<path style=" stroke:none;fill-rule:evenodd;fill:rgb(93.333334%,94.901961%,96.470588%);fill-opacity:1;" d="M 53.25 51.75 C 54.089844 53.792969 54.921875 55.792969 55.75 57.75 C 55.75 62.417969 55.75 67.082031 55.75 71.75 C 55.75 72.25 55.75 72.75 55.75 73.25 C 55.21875 75.816406 54.050781 77.984375 52.25 79.75 C 50.886719 80.640625 49.472656 81.472656 48 82.25 C 47.769531 81.953125 47.683594 81.621094 47.75 81.25 C 50.441406 78.699219 51.941406 75.535156 52.25 71.75 C 52.582031 65.082031 52.917969 58.417969 53.25 51.75 Z M 53.25 51.75 "/>
<path style=" stroke:none;fill-rule:evenodd;fill:rgb(15.294118%,21.960784%,48.627451%);fill-opacity:1;" d="M 59.75 60.75 C 61.292969 63.539062 62.460938 66.539062 63.25 69.75 C 62.585938 70.476562 62.171875 70.308594 62 69.25 C 61.917969 70 61.832031 70.75 61.75 71.5 C 62.171875 73.597656 62.671875 75.679688 63.25 77.75 C 61.765625 74.894531 60.515625 71.894531 59.5 68.75 C 59.410156 70.679688 59.160156 72.511719 58.75 74.25 C 58.75 73.417969 58.75 72.582031 58.75 71.75 C 58.25 71.75 57.75 71.75 57.25 71.75 C 57.25 72.25 57.25 72.75 57.25 73.25 C 56.75 73.25 56.25 73.25 55.75 73.25 C 55.75 72.75 55.75 72.25 55.75 71.75 C 56.242188 69.179688 56.410156 66.511719 56.25 63.75 C 56.75 63.75 57.25 63.75 57.75 63.75 C 57.75 64.75 57.75 65.75 57.75 66.75 C 59.535156 66.621094 60.199219 65.621094 59.75 63.75 C 59.25 63.75 58.75 63.75 58.25 63.75 C 58.015625 62.304688 58.515625 61.304688 59.75 60.75 Z M 59.75 60.75 "/>
<path style=" stroke:none;fill-rule:evenodd;fill:rgb(9.019608%,23.921569%,44.313726%);fill-opacity:1;" d="M 52.25 59.75 C 52.25 61.082031 52.25 62.417969 52.25 63.75 C 51.917969 66.339844 51.582031 69.007812 51.25 71.75 C 50.917969 69.007812 50.582031 66.339844 50.25 63.75 C 50.125 62.339844 50.375 61.007812 51 59.75 C 51.167969 60.082031 51.332031 60.417969 51.5 60.75 C 51.640625 60.292969 51.890625 59.960938 52.25 59.75 Z M 52.25 59.75 "/>
<path style=" stroke:none;fill-rule:evenodd;fill:rgb(91.37255%,93.725491%,95.686275%);fill-opacity:1;" d="M 86.25 44.75 C 84.828125 48.339844 83.496094 52.007812 82.25 55.75 C 81.417969 58.414062 80.582031 61.082031 79.75 63.75 C 78.464844 66.261719 77.464844 68.929688 76.75 71.75 C 75.382812 75.011719 74.21875 78.347656 73.25 81.75 C 71.28125 81.898438 69.363281 81.730469 67.5 81.25 C 66.046875 77.363281 64.632812 73.53125 63.25 69.75 C 62.460938 66.539062 61.292969 63.539062 59.75 60.75 C 59.25 59.082031 58.75 57.417969 58.25 55.75 C 56.75 51.75 55.25 47.75 53.75 43.75 C 53.984375 43.152344 54.484375 42.820312 55.25 42.75 C 55.75 42.832031 56.25 42.917969 56.75 43 C 57.226562 44.703125 57.894531 46.285156 58.75 47.75 C 59.464844 50.570312 60.464844 53.238281 61.75 55.75 C 63.066406 60.195312 64.566406 64.527344 66.25 68.75 C 67.019531 71.460938 67.9375 74.125 69 76.75 C 70.117188 77.488281 71.035156 77.324219 71.75 76.25 C 71.75 75.75 71.75 75.25 71.75 74.75 C 72.632812 73.605469 73.132812 72.269531 73.25 70.75 C 75.375 65.707031 77.210938 60.539062 78.75 55.25 C 79.871094 52.890625 80.703125 50.390625 81.25 47.75 C 82.632812 44.699219 83.882812 41.53125 85 38.25 C 85.964844 36.808594 87.214844 36.472656 88.75 37.25 C 87.613281 39.65625 86.78125 42.15625 86.25 44.75 Z M 86.25 44.75 "/>
<path style=" stroke:none;fill-rule:evenodd;fill:rgb(14.509805%,16.862746%,48.235294%);fill-opacity:1;" d="M 71.75 66.25 C 72.417969 66.25 73.082031 66.25 73.75 66.25 C 73.648438 67.757812 73.480469 69.257812 73.25 70.75 C 73.132812 72.269531 72.632812 73.605469 71.75 74.75 C 70.910156 73.222656 70.578125 71.558594 70.75 69.75 C 71.007812 68.554688 71.339844 67.386719 71.75 66.25 Z M 71.75 66.25 "/>
<path style=" stroke:none;fill-rule:evenodd;fill:rgb(11.764706%,28.235295%,46.666667%);fill-opacity:1;" d="M 61.75 55.75 C 62.75 55.75 63.75 55.75 64.75 55.75 C 66.710938 60.332031 68.378906 65 69.75 69.75 C 69.601562 70.726562 69.101562 71.394531 68.25 71.75 C 68.664062 70.265625 68.746094 68.765625 68.5 67.25 C 66.679688 65.289062 65.929688 65.789062 66.25 68.75 C 64.566406 64.527344 63.066406 60.195312 61.75 55.75 Z M 61.75 55.75 "/>
<path style=" stroke:none;fill-rule:evenodd;fill:rgb(8.627451%,27.450982%,48.627451%);fill-opacity:1;" d="M 78.75 55.25 C 77.210938 60.539062 75.375 65.707031 73.25 70.75 C 73.480469 69.257812 73.648438 67.757812 73.75 66.25 C 73.082031 66.25 72.417969 66.25 71.75 66.25 C 71.75 65.417969 71.75 64.582031 71.75 63.75 C 71.75 62.417969 71.75 61.082031 71.75 59.75 C 72.25 59.75 72.75 59.75 73.25 59.75 C 73.28125 60.023438 73.445312 60.1875 73.75 60.25 C 74.234375 58.617188 74.902344 57.117188 75.75 55.75 C 76.527344 55.042969 77.195312 54.210938 77.75 53.25 C 78.179688 53.882812 78.515625 54.550781 78.75 55.25 Z M 78.75 55.25 "/>
<path style=" stroke:none;fill-rule:evenodd;fill:rgb(91.764706%,94.509804%,94.901961%);fill-opacity:1;" d="M 67.25 52.75 C 67.417969 52.75 67.582031 52.75 67.75 52.75 C 68.800781 56.570312 70.132812 60.234375 71.75 63.75 C 71.75 64.582031 71.75 65.417969 71.75 66.25 C 71.339844 67.386719 71.007812 68.554688 70.75 69.75 C 70.417969 69.75 70.082031 69.75 69.75 69.75 C 68.378906 65 66.710938 60.332031 64.75 55.75 C 64.316406 54.445312 63.980469 53.109375 63.75 51.75 C 63.605469 50.066406 63.523438 48.398438 63.5 46.75 C 63.855469 47.488281 64.4375 47.820312 65.25 47.75 C 65.632812 49.570312 66.296875 51.234375 67.25 52.75 Z M 67.25 52.75 "/>
<path style=" stroke:none;fill-rule:evenodd;fill:rgb(9.411765%,32.941177%,48.235294%);fill-opacity:1;" d="M 71.25 53.25 C 72.054688 55.363281 72.722656 57.53125 73.25 59.75 C 72.75 59.75 72.25 59.75 71.75 59.75 C 71.75 61.082031 71.75 62.417969 71.75 63.75 C 70.132812 60.234375 68.800781 56.570312 67.75 52.75 C 68.003906 51.902344 68.339844 51.070312 68.75 50.25 C 69.167969 51.25 69.582031 52.25 70 53.25 C 70.386719 53.800781 70.800781 53.800781 71.25 53.25 Z M 71.25 53.25 "/>
<path style=" stroke:none;fill-rule:evenodd;fill:rgb(9.411765%,40.000001%,50.588238%);fill-opacity:1;" d="M 61.25 46.25 C 61.988281 48.125 62.820312 49.957031 63.75 51.75 C 63.980469 53.109375 64.316406 54.445312 64.75 55.75 C 63.75 55.75 62.75 55.75 61.75 55.75 C 60.464844 53.238281 59.464844 50.570312 58.75 47.75 C 59.832031 47.640625 60.664062 47.140625 61.25 46.25 Z M 61.25 46.25 "/>
<path style=" stroke:none;fill-rule:evenodd;fill:rgb(16.078432%,14.509805%,39.215687%);fill-opacity:1;" d="M 38.25 74.25 C 38.082031 74.25 37.917969 74.25 37.75 74.25 C 37.105469 73.179688 36.691406 72.015625 36.5 70.75 C 35.726562 70.089844 35.144531 70.257812 34.75 71.25 C 35.171875 72.9375 35.921875 74.4375 37 75.75 C 37.246094 76.566406 37.332031 77.402344 37.25 78.25 C 36.582031 78.25 35.917969 78.25 35.25 78.25 C 35.25 77.582031 35.25 76.917969 35.25 76.25 C 35.523438 76.21875 35.6875 76.054688 35.75 75.75 C 34.730469 73.699219 34.230469 71.53125 34.25 69.25 C 35.25 69.25 36.25 69.25 37.25 69.25 C 37.519531 70.933594 37.851562 72.597656 38.25 74.25 Z M 38.25 74.25 "/>
<path style=" stroke:none;fill-rule:evenodd;fill:rgb(17.254902%,15.686275%,45.09804%);fill-opacity:1;" d="M 32.75 75.75 C 31.660156 75.074219 30.660156 75.15625 29.75 76 C 30.917969 76.816406 31.917969 77.734375 32.75 78.75 C 31.3125 78.238281 30.0625 77.402344 29 76.25 C 27.851562 74.050781 27.265625 71.71875 27.25 69.25 C 28.25 69.25 29.25 69.25 30.25 69.25 C 30.203125 71.78125 31.039062 73.949219 32.75 75.75 Z M 32.75 75.75 "/>
<path style=" stroke:none;fill-rule:evenodd;fill:rgb(19.215687%,16.078432%,48.627451%);fill-opacity:1;" d="M 79.75 71.75 C 79.164062 74.535156 78.332031 77.203125 77.25 79.75 C 76.78125 79.214844 76.617188 78.550781 76.75 77.75 C 76.25 77.75 75.75 77.75 75.25 77.75 C 75.082031 79.082031 74.917969 80.417969 74.75 81.75 C 74.25 81.75 73.75 81.75 73.25 81.75 C 74.21875 78.347656 75.382812 75.011719 76.75 71.75 C 77.246094 71.792969 77.664062 71.625 78 71.25 C 78.535156 69.347656 79.203125 67.515625 80 65.75 C 80.320312 66.304688 80.570312 66.886719 80.75 67.5 C 80.15625 68.863281 79.824219 70.277344 79.75 71.75 Z M 79.75 71.75 "/>
<path style=" stroke:none;fill-rule:evenodd;fill:rgb(17.254902%,14.901961%,46.666667%);fill-opacity:1;" d="M 86.25 72.75 C 85.535156 75.566406 84.535156 78.230469 83.25 80.75 C 83.941406 78.496094 84.441406 76.160156 84.75 73.75 C 84.082031 73.75 83.417969 73.75 82.75 73.75 C 83.257812 72.371094 83.757812 71.039062 84.25 69.75 C 85.007812 69.746094 85.59375 69.410156 86 68.75 C 86.25 70.074219 86.332031 71.40625 86.25 72.75 Z M 86.25 72.75 "/>
<path style=" stroke:none;fill-rule:evenodd;fill:rgb(16.862746%,12.54902%,55.29412%);fill-opacity:1;" d="M 69.75 69.75 C 70.082031 69.75 70.417969 69.75 70.75 69.75 C 70.578125 71.558594 70.910156 73.222656 71.75 74.75 C 71.75 75.25 71.75 75.75 71.75 76.25 C 69.746094 75.417969 68.582031 73.917969 68.25 71.75 C 69.101562 71.394531 69.601562 70.726562 69.75 69.75 Z M 69.75 69.75 "/>
<path style=" stroke:none;fill-rule:evenodd;fill:rgb(16.078432%,16.078432%,48.627451%);fill-opacity:1;" d="M 42.75 63.75 C 43.417969 63.75 44.082031 63.75 44.75 63.75 C 44.75 66.75 44.75 69.75 44.75 72.75 C 44.753906 74.75 43.921875 76.25 42.25 77.25 C 42.25 76.582031 42.25 75.917969 42.25 75.25 C 40.773438 75.578125 39.273438 75.746094 37.75 75.75 C 37.75 75.25 37.75 74.75 37.75 74.25 C 37.917969 74.25 38.082031 74.25 38.25 74.25 C 38.800781 74.898438 39.46875 75.148438 40.25 75 C 41.347656 73.789062 42.015625 72.371094 42.25 70.75 C 42.742188 68.515625 42.910156 66.179688 42.75 63.75 Z M 42.75 63.75 "/>
<path style=" stroke:none;fill-rule:evenodd;fill:rgb(23.529412%,13.725491%,46.666667%);fill-opacity:1;" d="M 63.25 69.75 C 64.632812 73.53125 66.046875 77.363281 67.5 81.25 C 69.363281 81.730469 71.28125 81.898438 73.25 81.75 C 70.847656 82.242188 68.347656 82.410156 65.75 82.25 C 65.75 82.917969 65.75 83.582031 65.75 84.25 C 70.898438 84.714844 76.0625 84.878906 81.25 84.75 C 76.171875 85.328125 71.003906 85.414062 65.75 85 C 64.695312 82.648438 63.863281 80.230469 63.25 77.75 C 62.671875 75.679688 62.171875 73.597656 61.75 71.5 C 61.832031 70.75 61.917969 70 62 69.25 C 62.171875 70.308594 62.585938 70.476562 63.25 69.75 Z M 63.25 69.75 "/>
<path style=" stroke:none;fill-rule:evenodd;fill:rgb(18.039216%,17.647059%,46.666667%);fill-opacity:1;" d="M 68.25 71.75 C 68.582031 73.917969 69.746094 75.417969 71.75 76.25 C 71.035156 77.324219 70.117188 77.488281 69 76.75 C 67.9375 74.125 67.019531 71.460938 66.25 68.75 C 65.929688 65.789062 66.679688 65.289062 68.5 67.25 C 68.746094 68.765625 68.664062 70.265625 68.25 71.75 Z M 68.25 71.75 "/>
<path style=" stroke:none;fill-rule:evenodd;fill:rgb(16.862746%,13.725491%,45.882353%);fill-opacity:1;" d="M 49.25 63.75 C 49.582031 63.75 49.917969 63.75 50.25 63.75 C 50.582031 66.339844 50.917969 69.007812 51.25 71.75 C 51.582031 69.007812 51.917969 66.339844 52.25 63.75 C 52.25 66.417969 52.25 69.082031 52.25 71.75 C 51.941406 75.535156 50.441406 78.699219 47.75 81.25 C 47.738281 80.429688 48.074219 79.761719 48.75 79.25 C 48.335938 78.433594 48.25 77.597656 48.5 76.75 C 47.664062 77.65625 47.246094 78.574219 47.25 79.5 C 46.601562 79.746094 45.9375 79.828125 45.25 79.75 C 46.332031 78.585938 47.167969 77.25 47.75 75.75 C 48.398438 75.078125 48.8125 74.246094 49 73.25 C 49.25 70.085938 49.332031 66.921875 49.25 63.75 Z M 49.25 63.75 "/>
<path style=" stroke:none;fill-rule:evenodd;fill:rgb(22.745098%,13.333334%,53.333336%);fill-opacity:1;" d="M 37.75 74.25 C 37.75 74.75 37.75 75.25 37.75 75.75 C 39.273438 75.746094 40.773438 75.578125 42.25 75.25 C 42.25 75.917969 42.25 76.582031 42.25 77.25 C 39.355469 79.757812 36.191406 80.257812 32.75 78.75 C 31.917969 77.734375 30.917969 76.816406 29.75 76 C 30.660156 75.15625 31.660156 75.074219 32.75 75.75 C 33.558594 76.019531 34.390625 76.183594 35.25 76.25 C 35.25 76.917969 35.25 77.582031 35.25 78.25 C 35.917969 78.25 36.582031 78.25 37.25 78.25 C 37.332031 77.402344 37.246094 76.566406 37 75.75 C 35.921875 74.4375 35.171875 72.9375 34.75 71.25 C 35.144531 70.257812 35.726562 70.089844 36.5 70.75 C 36.691406 72.015625 37.105469 73.179688 37.75 74.25 Z M 37.75 74.25 "/>
<path style=" stroke:none;fill-rule:evenodd;fill:rgb(20.784314%,11.764706%,46.27451%);fill-opacity:1;" d="M 32.75 82.75 C 31.015625 82.9375 29.515625 82.4375 28.25 81.25 C 27.445312 81.660156 27.109375 82.328125 27.25 83.25 C 22.46875 80.113281 20.136719 75.613281 20.25 69.75 C 21.25 69.75 22.25 69.75 23.25 69.75 C 23.503906 76.277344 26.671875 80.609375 32.75 82.75 Z M 32.75 82.75 "/>
<path style=" stroke:none;fill-rule:evenodd;fill:rgb(18.039216%,10.196079%,43.921569%);fill-opacity:1;" d="M 58.75 74.25 C 58.089844 77.574219 56.421875 80.242188 53.75 82.25 C 54.019531 81.441406 54.183594 80.609375 54.25 79.75 C 53.582031 79.75 52.917969 79.75 52.25 79.75 C 54.050781 77.984375 55.21875 75.816406 55.75 73.25 C 56.25 73.25 56.75 73.25 57.25 73.25 C 57.25 72.75 57.25 72.25 57.25 71.75 C 57.75 71.75 58.25 71.75 58.75 71.75 C 58.75 72.582031 58.75 73.417969 58.75 74.25 Z M 58.75 74.25 "/>
<path style=" stroke:none;fill-rule:evenodd;fill:rgb(23.529412%,7.058824%,47.843137%);fill-opacity:1;" d="M 82.75 73.75 C 83.417969 73.75 84.082031 73.75 84.75 73.75 C 84.441406 76.160156 83.941406 78.496094 83.25 80.75 C 83.085938 82.414062 82.417969 83.746094 81.25 84.75 C 76.0625 84.878906 70.898438 84.714844 65.75 84.25 C 65.75 83.582031 65.75 82.917969 65.75 82.25 C 68.347656 82.410156 70.847656 82.242188 73.25 81.75 C 73.75 81.75 74.25 81.75 74.75 81.75 C 74.917969 80.417969 75.082031 79.082031 75.25 77.75 C 75.75 77.75 76.25 77.75 76.75 77.75 C 76.617188 78.550781 76.78125 79.214844 77.25 79.75 C 77.25 79.917969 77.25 80.082031 77.25 80.25 C 76.78125 80.785156 76.617188 81.449219 76.75 82.25 C 77.867188 82.398438 78.867188 82.230469 79.75 81.75 C 80.652344 79.042969 81.652344 76.375 82.75 73.75 Z M 82.75 73.75 "/>
<path style=" stroke:none;fill-rule:evenodd;fill:rgb(54.901963%,43.137255%,65.882355%);fill-opacity:1;" d="M 77.25 80.25 C 77.25 80.75 77.25 81.25 77.25 81.75 C 78.082031 81.75 78.917969 81.75 79.75 81.75 C 78.867188 82.230469 77.867188 82.398438 76.75 82.25 C 76.617188 81.449219 76.78125 80.785156 77.25 80.25 Z M 77.25 80.25 "/>
<path style=" stroke:none;fill-rule:evenodd;fill:rgb(26.666668%,5.098039%,48.627451%);fill-opacity:1;" d="M 47.75 81.25 C 47.683594 81.621094 47.769531 81.953125 48 82.25 C 49.472656 81.472656 50.886719 80.640625 52.25 79.75 C 52.917969 79.75 53.582031 79.75 54.25 79.75 C 54.183594 80.609375 54.019531 81.441406 53.75 82.25 C 52.003906 83.707031 50.003906 84.789062 47.75 85.5 C 42.417969 85.832031 37.082031 85.832031 31.75 85.5 C 29.980469 85.167969 28.480469 84.417969 27.25 83.25 C 27.109375 82.328125 27.445312 81.660156 28.25 81.25 C 29.515625 82.4375 31.015625 82.9375 32.75 82.75 C 37.371094 83.460938 41.539062 82.460938 45.25 79.75 C 45.9375 79.828125 46.601562 79.746094 47.25 79.5 C 47.246094 78.574219 47.664062 77.65625 48.5 76.75 C 48.25 77.597656 48.335938 78.433594 48.75 79.25 C 48.074219 79.761719 47.738281 80.429688 47.75 81.25 Z M 47.75 81.25 "/>
</g>
</svg>
