<?xml version="1.0" standalone="no"?>
<!DOCTYPE svg PUBLIC "-//W3C//DTD SVG 20010904//EN"
 "http://www.w3.org/TR/2001/REC-SVG-20010904/DTD/svg10.dtd">
<svg version="1.0" xmlns="http://www.w3.org/2000/svg"
 width="240.000000pt" height="240.000000pt" viewBox="0 0 240.000000 240.000000"
 preserveAspectRatio="xMidYMid meet">

<g transform="translate(0.000000,240.000000) scale(0.100000,-0.100000)"
fill="#000000" stroke="none">
<path d="M620 1691 l0 -31 309 0 c238 0 311 -3 319 -13 6 -7 49 -125 95 -262
47 -138 89 -261 94 -274 7 -18 5 -39 -5 -73 -9 -26 -18 -48 -21 -48 -3 0 -53
129 -110 288 -57 158 -111 295 -119 305 -14 15 -40 17 -289 17 l-273 0 0 -30
0 -30 115 0 115 0 0 -292 c0 -274 -1 -295 -20 -325 -11 -18 -24 -33 -29 -33
-17 0 -41 43 -48 83 -5 33 -9 37 -34 37 -26 0 -29 -4 -29 -30 0 -17 7 -47 15
-67 18 -42 16 -46 -19 -37 -35 8 -65 48 -72 96 -6 34 -10 38 -35 38 -23 0 -29
-4 -29 -22 0 -155 178 -238 298 -141 57 47 60 66 61 394 l1 297 36 4 c22 3 38
0 41 -8 2 -7 3 -146 1 -310 -3 -327 -6 -344 -66 -407 -50 -53 -98 -71 -192
-71 -69 -1 -93 3 -127 21 -72 39 -111 99 -128 196 -5 33 -9 37 -35 37 -34 0
-35 -5 -19 -82 15 -70 50 -129 102 -171 72 -58 109 -67 280 -67 146 0 154 1
212 28 103 49 156 127 174 257 6 48 9 55 15 35 4 -14 31 -88 59 -165 l53 -140
154 -2 c85 -2 160 0 167 5 9 6 211 540 299 790 13 36 24 52 36 52 13 0 18 8
18 30 0 26 -4 30 -28 30 -16 0 -36 -8 -45 -18 -13 -14 -218 -547 -299 -777
-16 -44 -25 -53 -53 -47 -14 2 -25 6 -25 7 0 2 15 47 34 102 19 54 85 244 146
423 61 179 118 335 126 348 13 19 23 22 79 22 l65 0 0 30 0 30 -134 0 c-123 0
-136 -2 -167 -23 -19 -13 -33 -31 -33 -40 1 -9 -1 -15 -5 -13 -6 4 -59 -141
-143 -386 -13 -38 -25 -68 -28 -68 -3 0 -38 98 -79 218 -82 241 -97 276 -113
266 -6 -4 -8 -3 -5 3 4 6 -1 17 -10 24 -13 11 -84 15 -335 17 l-318 3 0 -30z
m1160 -38 c0 -5 -23 -73 -51 -153 -82 -233 -124 -353 -192 -550 l-65 -185 -57
0 -56 0 -145 385 c-79 212 -144 386 -144 388 0 2 16 2 36 0 l36 -3 122 -337
c66 -186 126 -340 133 -343 30 -11 44 15 101 183 160 470 205 598 214 610 11
13 68 17 68 5z m-680 -371 c31 -91 32 -97 28 -225 -6 -177 -34 -238 -130 -288
-44 -23 -47 -18 -14 22 14 16 34 54 45 84 19 51 21 77 21 287 0 128 4 228 8
223 5 -6 23 -52 42 -103z"/>
</g>
</svg>
